<svg width="180" height="30" viewBox="0 0 180 30" fill="none" xmlns="http://www.w3.org/2000/svg">
<path d="M76.3692 0.14855C77.3274 0.12355 78.5337 0.182146 79.4813 0.0823415C83.269 -0.315901 88.7169 0.616913 89.1758 5.39797C89.5967 9.78156 89.1985 14.9779 89.3288 19.5105C89.4762 24.632 89.4264 29.0091 83.0838 29.7452C71.1182 29.9278 68.7883 29.9046 69.4788 16.272C69.7866 10.1915 67.1469 0.562418 76.3692 0.14855Z" fill="#FEFEFE"/>
<path d="M78.4271 3.58888C80.3575 3.2713 81.372 3.91739 82.7488 5.18634C82.9798 7.08731 82.8976 10.5883 82.898 12.5598C82.9117 16.6135 82.8933 20.6674 82.8429 24.7209C82.0333 25.3893 81.5587 25.7617 80.6704 26.3387C80.1607 26.4967 79.6165 26.684 79.0773 26.592C78.1431 26.4322 77.2195 25.9024 76.6798 25.1147C75.8056 23.8389 76.1033 6.87091 76.5115 4.74415L78.4271 3.58888Z" fill="#171717"/>
<path d="M93.9143 0.168911C96.5362 0.114028 106.483 -0.122691 108.546 0.359926C110.259 0.743325 111.74 1.81129 112.644 3.31559C113.795 5.22301 113.927 7.90309 113.398 10.0435C112.818 12.3947 111.49 13.3123 109.593 14.4519C114.249 15.5871 113.592 17.7982 113.728 21.963C113.811 24.5277 113.719 27.1691 113.706 29.7388C111.493 29.7672 109.239 29.7496 107.022 29.7537L107.004 27.3951C106.999 24.7918 107.116 21.13 106.865 18.6388C106.709 18.4652 106.548 18.2966 106.381 18.1336C104.536 16.33 102.94 16.6214 100.453 16.663L100.441 29.7365L93.8194 29.7554L93.7979 9.67848C93.796 7.6404 93.6635 1.87672 93.9143 0.168911Z" fill="#FEFEFE"/>
<path d="M100.497 3.4082C106.387 3.45957 107.879 4.33731 106.753 11.0783C106.7 11.3941 106.146 12.0961 105.929 12.3678C104.425 13.4791 102.287 13.308 100.483 13.2994C100.441 10.0023 100.446 6.70508 100.497 3.4082Z" fill="#171717"/>
<path d="M0.753593 0.150141C2.89598 0.110102 4.61297 0.122991 6.76179 0.220647C6.76511 8.7724 6.58152 18.3349 6.87058 26.7962C9.89988 26.5581 13.0526 27.1458 13.2723 23.1531C13.4128 20.6009 13.3725 18.1195 13.3708 15.5662C13.3286 10.4308 13.3442 5.29526 13.4177 0.160297C15.6044 0.10561 17.7923 0.131197 19.977 0.237056L19.9807 3.63041L20.0104 14.1359C20.018 16.922 20.1872 19.8761 19.2577 22.5337C16.2555 31.1179 7.26355 29.7933 0.14246 29.7695C0.125859 25.9367 -0.263986 2.12338 0.321561 0.297406L0.753593 0.150141Z" fill="#FEFEFE"/>
<path d="M45.3751 0.129839C47.5327 0.105035 49.6907 0.132964 51.8472 0.214019C51.8265 2.35757 51.302 11.3798 52.9692 12.398C60.3925 16.9306 58.4722 3.81695 58.5737 0.205036C60.5636 0.0603099 63.0382 0.143317 65.0667 0.159528C65.0741 1.28746 65.0823 2.49293 65.0862 3.61715C65.1106 10.4937 65.7739 12.2671 59.0399 15.4875C66.8306 16.2371 65.1054 23.6804 65.0712 29.7418L58.5321 29.7568C58.5311 26.0681 58.5888 22.1935 58.4206 18.5236C58.3317 18.4265 58.2413 18.3308 58.1495 18.2365C52.6411 12.6043 51.2923 21.5234 51.8139 25.2839C51.9552 26.3027 51.8278 28.6056 51.8347 29.741L45.3229 29.7476C45.302 27.9886 45.3073 26.0738 45.2688 24.3322C45.1474 18.8244 45.5222 16.4058 51.3757 15.4052C43.4036 12.2253 45.2136 7.46363 45.3751 0.129839Z" fill="#FEFEFE"/>
<path d="M25.2443 0.139568C30.4594 0.0942552 35.6746 0.0999157 40.8892 0.156752L40.8797 3.54074C37.5762 3.45344 34.2004 3.59152 30.8976 3.43175C30.8564 6.70949 30.857 9.98781 30.8992 13.2655C33.1094 13.2591 35.3197 13.273 37.5299 13.3075L37.5303 16.6655C35.3066 16.6534 33.083 16.6583 30.8594 16.6798L30.8601 23.9198L30.8777 26.6603C34.1967 26.6552 37.634 26.6021 40.9377 26.7823C40.8986 27.7275 40.9041 28.797 40.8896 29.7519L24.4045 29.7585C24.2318 26.8241 24.3595 22.5667 24.358 19.5316L24.3566 0.525114C24.6617 0.121403 24.5697 0.251091 25.2443 0.139568Z" fill="#FEFEFE"/>
<path d="M127.801 30C127.12 30 126.779 29.659 126.779 28.9771V12.5824C126.779 11.9004 127.12 11.5595 127.801 11.5595H137.906C138.22 11.5595 138.464 11.6516 138.639 11.8359C138.823 12.011 138.916 12.2598 138.916 12.5824C138.916 13.2551 138.579 13.5915 137.906 13.5915H128.811V19.6738H134.616C135.298 19.6738 135.639 20.0102 135.639 20.683C135.639 21.3649 135.298 21.7059 134.616 21.7059H128.811V28.9771C128.811 29.659 128.474 30 127.801 30Z" fill="white"/>
<path d="M142.332 13.9509C141.539 13.9509 141.143 13.5454 141.143 12.7345V11.988C141.143 11.1954 141.539 10.7992 142.332 10.7992H143.078C143.843 10.7992 144.226 11.1954 144.226 11.988V12.7345C144.226 13.5454 143.843 13.9509 143.078 13.9509H142.332ZM142.705 30C142.023 30 141.682 29.659 141.682 28.9771V17.31C141.682 16.6373 142.023 16.3009 142.705 16.3009C143.378 16.3009 143.714 16.6373 143.714 17.31V28.9771C143.714 29.659 143.378 30 142.705 30Z" fill="white"/>
<path d="M150.292 30C149.61 30 149.269 29.659 149.269 28.9771V17.31C149.269 16.6373 149.61 16.3009 150.292 16.3009C150.964 16.3009 151.301 16.6373 151.301 17.31V18.0565C152.241 16.8861 153.729 16.3009 155.766 16.3009H156.54C158.337 16.3009 159.664 16.7294 160.521 17.5865C161.378 18.4436 161.807 19.7706 161.807 21.5677V28.9771C161.807 29.659 161.47 30 160.798 30C160.116 30 159.775 29.659 159.775 28.9771V21.5677C159.775 20.3236 159.54 19.4757 159.07 19.0241C158.609 18.5634 157.766 18.333 156.54 18.333H155.766C154.549 18.333 153.531 18.4942 152.711 18.8168C151.891 19.1301 151.421 19.6278 151.301 20.3097V28.9771C151.301 29.659 150.964 30 150.292 30Z" fill="white"/>
<path d="M171.802 30C170.005 30 168.673 29.5715 167.807 28.7144C166.95 27.8481 166.521 26.5165 166.521 24.7194V21.5677C166.521 19.7706 166.95 18.4436 167.807 17.5865C168.673 16.7294 170.005 16.3009 171.802 16.3009H177.304V11.6424C177.304 10.9697 177.645 10.6333 178.327 10.6333C178.999 10.6333 179.336 10.9697 179.336 11.6424V28.9771C179.336 29.659 178.999 30 178.327 30C177.645 30 177.304 29.659 177.304 28.9771V28.4518C176.88 28.9586 176.308 29.3457 175.59 29.6129C174.871 29.871 173.958 30 172.852 30H171.802ZM171.802 27.9679H172.852C174.143 27.9679 175.207 27.7882 176.046 27.4288C176.884 27.0694 177.304 26.5211 177.304 25.7838V18.333H171.802C170.558 18.333 169.705 18.568 169.245 19.038C168.784 19.4988 168.553 20.342 168.553 21.5677V24.7194C168.553 25.9635 168.784 26.816 169.245 27.2768C169.715 27.7376 170.567 27.9679 171.802 27.9679Z" fill="white"/>
</svg>
